# Blender v2.77 (sub 0) OBJ File: 'directional_light_icon.blend'
# www.blender.org
mtllib camera_icon.mtl
o SpotLight_Mesh_Cylinder.001
v 0.469868 -0.217555 -0.523720
v 0.486491 -0.177294 -0.523720
v 0.498441 -0.205790 -0.503989
v 0.486561 -0.224441 -0.523720
v 0.464729 -0.191871 -0.523720
v 0.486485 -0.177309 -1.359568
v 0.469862 -0.217570 -1.359568
v 0.486088 0.178412 -0.523725
v 0.469373 0.218635 -0.523726
v 0.464292 0.192939 -0.523725
v 0.486017 0.225559 -0.523726
v 0.497973 0.206935 -0.503995
v 0.469367 0.218621 -1.359573
v 0.486082 0.178397 -1.359573
v 0.217566 0.469872 -0.523728
v 0.177304 0.486495 -0.523728
v 0.205801 0.498445 -0.503997
v 0.224451 0.486549 -0.523728
v 0.191881 0.464733 -0.523728
v 0.177299 0.486481 -1.359576
v 0.217560 0.469858 -1.359576
v -0.178402 0.486092 -0.523726
v -0.218625 0.469377 -0.523725
v -0.192929 0.464296 -0.523725
v -0.225549 0.486038 -0.523726
v -0.206925 0.497977 -0.503995
v -0.218631 0.469363 -1.359573
v -0.178407 0.486077 -1.359573
v -0.469862 0.217570 -0.523720
v -0.486485 0.177309 -0.523720
v -0.498435 0.205805 -0.503989
v -0.486556 0.224455 -0.523720
v -0.464723 0.191886 -0.523720
v -0.486491 0.177294 -1.359568
v -0.469868 0.217555 -1.359568
v -0.486082 -0.178397 -0.523715
v -0.469367 -0.218621 -0.523714
v -0.464286 -0.192925 -0.523715
v -0.486011 -0.225544 -0.523715
v -0.497967 -0.206921 -0.503983
v -0.469373 -0.218635 -1.359562
v -0.486088 -0.178412 -1.359563
v -0.217560 -0.469858 -0.523712
v -0.177299 -0.486481 -0.523712
v -0.205795 -0.498431 -0.503981
v -0.224445 -0.486534 -0.523712
v -0.191875 -0.464718 -0.523713
v -0.177304 -0.486495 -1.359560
v -0.217566 -0.469872 -1.359560
v 0.178408 -0.486077 -0.523714
v 0.218631 -0.469363 -0.523715
v 0.192935 -0.464282 -0.523715
v 0.225554 -0.486024 -0.523714
v 0.206931 -0.497963 -0.503983
v 0.218625 -0.469377 -1.359563
v 0.178402 -0.486092 -1.359562
v 0.767943 -0.317064 -0.018115
v 0.779586 -0.321871 -0.038734
v 0.778853 0.323653 -0.038743
v 0.767222 0.318820 -0.018124
v 0.317076 0.767950 -0.018127
v 0.321882 0.779590 -0.038746
v -0.323642 0.778858 -0.038742
v -0.318810 0.767229 -0.018124
v -0.767936 0.317078 -0.018115
v -0.779578 0.321885 -0.038734
v -0.778846 -0.323638 -0.038725
v -0.767214 -0.318805 -0.018106
v -0.317069 -0.767936 -0.018103
v -0.321874 -0.779575 -0.038721
v 0.323649 -0.778843 -0.038724
v 0.318817 -0.767215 -0.018106
v 0.640105 -0.264281 -0.039692
v 0.674921 -0.278656 -0.018115
v 0.674287 0.280201 -0.018123
v 0.639504 0.265747 -0.039699
v 0.264292 0.640109 -0.039702
v 0.278665 0.674921 -0.018126
v -0.280188 0.674287 -0.018123
v -0.265736 0.639507 -0.039699
v -0.640097 0.264296 -0.039692
v -0.674913 0.278671 -0.018115
v -0.674279 -0.280186 -0.018107
v -0.639496 -0.265733 -0.039685
v -0.264285 -0.640094 -0.039681
v -0.278658 -0.674906 -0.018104
v 0.280196 -0.674272 -0.018107
v 0.265744 -0.639493 -0.039684
v -0.486876 0.394510 -0.523720
v -0.475133 0.412658 -0.499667
v -0.437148 0.396974 -0.499667
v -0.400127 0.358754 -0.523720
v 0.399029 0.359716 -0.523724
v 0.435929 0.397965 -0.499672
v 0.473877 0.413734 -0.499673
v 0.485697 0.395669 -0.523725
v -0.768241 0.479650 -0.018115
v -0.751540 0.500211 -0.042168
v -0.779889 0.487323 -0.038734
v -0.675219 0.441243 -0.018115
v -0.640409 0.429904 -0.039692
v -0.664260 0.464174 -0.042168
v 0.673981 0.442789 -0.018122
v 0.662930 0.465680 -0.042175
v 0.639192 0.431358 -0.039699
v 0.766916 0.481408 -0.018124
v 0.778542 0.489094 -0.038743
v 0.750126 0.501914 -0.042176
v -0.399010 -0.370081 -0.523716
v -0.435899 -0.408251 -0.499666
v -0.473871 -0.424030 -0.499666
v -0.485678 -0.406036 -0.523715
v 0.486895 -0.404877 -0.523720
v 0.475162 -0.422954 -0.499671
v 0.437152 -0.407260 -0.499671
v 0.400145 -0.369120 -0.523720
v -0.673963 -0.451749 -0.018107
v -0.662903 -0.474703 -0.042157
v -0.639174 -0.440385 -0.039685
v -0.766897 -0.490367 -0.018106
v -0.778524 -0.498120 -0.038725
v -0.750124 -0.510947 -0.042156
v 0.768260 -0.488611 -0.018115
v 0.751573 -0.509244 -0.042164
v 0.779908 -0.496350 -0.038734
v 0.675237 -0.450203 -0.018115
v 0.640427 -0.438932 -0.039692
v 0.664268 -0.473197 -0.042164
v -0.413173 0.474044 -0.499673
v -0.394275 0.485847 -0.523726
v -0.358260 0.399179 -0.523725
v -0.397404 0.436096 -0.499672
v -0.393171 -0.486726 -0.523712
v -0.412097 -0.474965 -0.499660
v -0.396414 -0.436982 -0.499660
v -0.357354 -0.399976 -0.523714
v -0.480911 0.767045 -0.018124
v -0.487824 0.778671 -0.038742
v -0.501420 0.750272 -0.042176
v -0.442289 0.674103 -0.018123
v -0.465187 0.663076 -0.042175
v -0.429973 0.639321 -0.039699
v -0.479170 -0.768120 -0.018103
v -0.499717 -0.751392 -0.042156
v -0.486056 -0.779761 -0.038721
v -0.440759 -0.675090 -0.018104
v -0.428522 -0.640280 -0.039681
v -0.463681 -0.664115 -0.042157
v 0.397149 0.436996 -0.499675
v 0.358159 0.399992 -0.523727
v 0.393977 0.486741 -0.523728
v 0.412833 0.474982 -0.499675
v 0.413909 -0.474029 -0.499662
v 0.395015 -0.485832 -0.523714
v 0.359001 -0.399164 -0.523715
v 0.398140 -0.436080 -0.499662
v 0.441402 0.675105 -0.018126
v 0.429234 0.640296 -0.039702
v 0.464328 0.664130 -0.042178
v 0.479812 0.768135 -0.018127
v 0.500365 0.751409 -0.042180
v 0.486768 0.779777 -0.038746
v 0.481554 -0.767030 -0.018106
v 0.488470 -0.778656 -0.038724
v 0.502068 -0.750257 -0.042159
v 0.442932 -0.674088 -0.018107
v 0.465834 -0.663060 -0.042160
v 0.430620 -0.639306 -0.039684
v 0.399740 -0.140141 -0.523720
v 0.382175 -0.182684 -0.523720
v 0.422793 -0.174556 -0.523720
v 0.399815 -0.189960 -0.523720
v 0.410664 -0.169549 -0.501776
v 0.381760 0.183565 -0.523725
v 0.399421 0.141062 -0.523724
v 0.410279 0.170494 -0.501781
v 0.399346 0.190881 -0.523725
v 0.422396 0.175530 -0.523725
v 0.140151 0.399745 -0.523726
v 0.182694 0.382179 -0.523726
v 0.174567 0.422797 -0.523727
v 0.189970 0.399801 -0.523727
v 0.169559 0.410669 -0.501783
v -0.183555 0.381764 -0.523724
v -0.141051 0.399426 -0.523725
v -0.170484 0.410283 -0.501781
v -0.190870 0.399369 -0.523725
v -0.175519 0.422400 -0.523725
v -0.399734 0.140155 -0.523720
v -0.382169 0.182698 -0.523721
v -0.422787 0.174571 -0.523720
v -0.399810 0.189974 -0.523720
v -0.410658 0.169563 -0.501776
v -0.381754 -0.183550 -0.523715
v -0.399415 -0.141047 -0.523716
v -0.410273 -0.170480 -0.501772
v -0.399341 -0.190866 -0.523716
v -0.422390 -0.175515 -0.523715
v -0.140145 -0.399730 -0.523714
v -0.182688 -0.382165 -0.523714
v -0.174561 -0.422783 -0.523713
v -0.189964 -0.399787 -0.523714
v -0.169553 -0.410654 -0.501770
v 0.183560 -0.381749 -0.523716
v 0.141057 -0.399411 -0.523715
v 0.170490 -0.410268 -0.501772
v 0.190876 -0.399355 -0.523715
v 0.175525 -0.422385 -0.523715
v 0.382170 -0.182697 -1.273950
v 0.399735 -0.140154 -1.273950
v 0.399416 0.141048 -1.273954
v 0.381754 0.183551 -1.273955
v 0.182689 0.382166 -1.273956
v 0.140145 0.399731 -1.273956
v -0.141057 0.399412 -1.273955
v -0.183560 0.381750 -1.273954
v -0.382174 0.182685 -1.273951
v -0.399740 0.140142 -1.273950
v -0.399421 -0.141061 -1.273946
v -0.381759 -0.183564 -1.273946
v -0.182693 -0.382178 -1.273944
v -0.140150 -0.399743 -1.273944
v 0.141052 -0.399425 -1.273945
v 0.183555 -0.381763 -1.273946
vn 0.7079 -0.7063 0.0000
vn -0.8957 -0.0017 0.4447
vn -0.0000 0.0000 1.0000
vn 0.0010 -0.8957 0.4446
vn 0.8957 0.0017 0.4447
vn 0.7063 0.7079 -0.0000
vn -0.7079 0.7063 -0.0000
vn 0.0010 -0.8560 -0.5170
vn -0.0000 0.0000 -1.0000
vn 0.3831 -0.9220 0.0562
vn -0.0010 0.8957 0.4446
vn -0.0010 0.8560 -0.5170
vn -0.3832 0.9221 0.0536
vn 0.8560 0.0016 -0.5169
vn 0.8560 0.0010 -0.5170
vn -0.7063 -0.7079 0.0000
vn 0.8958 0.0017 0.4444
vn -0.0010 0.8958 0.4446
vn -0.8560 -0.0010 -0.5170
vn 0.8957 0.0010 0.4446
vn 1.0000 0.0011 -0.0000
vn 0.3811 0.9230 0.0536
vn 0.0011 -1.0000 0.0000
vn -0.0011 1.0000 -0.0000
vn 0.8559 0.0016 -0.5171
vn -0.8560 -0.0016 -0.5169
vn -0.9221 -0.3832 0.0535
vn -0.8957 -0.0010 0.4446
vn -0.8559 -0.0016 -0.5171
vn -0.3810 -0.9229 0.0562
vn 0.9230 -0.3811 0.0537
vn -0.9230 0.3811 0.0535
vn -1.0000 -0.0011 0.0000
vn -0.8958 -0.0017 0.4445
vn 0.9221 0.3832 0.0537
vn 0.6979 0.0010 -0.7162
vn 0.6977 0.0011 -0.7164
vn -0.0008 0.6978 -0.7163
vn -0.6979 -0.0011 -0.7162
vn -0.6978 -0.0010 -0.7163
vn 0.0008 -0.6978 -0.7163
vn 0.9243 -0.3816 0.0000
vn 0.9234 0.3837 -0.0000
vn 0.3816 0.9243 -0.0000
vn -0.3837 0.9234 -0.0000
vn -0.9243 0.3816 -0.0000
vn -0.9234 -0.3837 0.0000
vn -0.3816 -0.9243 0.0000
vn 0.3837 -0.9234 0.0000
vn -0.3136 0.8183 0.4817
vn 0.5719 0.4477 0.6874
vn -0.5730 0.4459 0.6876
vn 0.3115 0.8194 0.4811
vn 0.5725 -0.4454 0.6884
vn -0.3112 -0.8183 0.4832
vn 0.3133 -0.8172 0.4837
vn -0.5714 -0.4472 0.6882
vn -0.8194 0.3362 0.4643
vn -0.4399 -0.5807 0.6850
vn -0.8187 -0.3380 0.4643
vn -0.4412 0.5797 0.6850
vn 0.4417 -0.5791 0.6852
vn 0.8186 0.3360 0.4658
vn 0.8193 -0.3361 0.4644
vn 0.4399 0.5807 0.6851
vn 0.8709 0.0010 0.4915
vn -0.0010 0.8709 0.4914
vn -0.8709 -0.0010 0.4915
vn 0.0010 -0.8709 0.4914
vn -0.5270 -0.0006 0.8499
vn 0.0006 -0.5270 0.8499
vn 0.5270 0.0006 0.8499
vn -0.0006 0.5270 0.8499
vn 0.2858 0.6930 -0.6619
vn -0.2876 0.6929 -0.6612
vn 0.2625 0.6358 0.7258
vn -0.2640 0.6352 0.7258
vn -0.7739 0.5570 0.3015
vn -0.4183 0.8115 -0.4080
vn 0.7725 0.5590 0.3013
vn 0.4154 0.8132 -0.4075
vn -0.8709 -0.0016 0.4914
vn -0.5268 -0.0010 0.8500
vn 0.8708 0.0016 0.4916
vn 0.5271 0.0010 0.8498
vn 0.2880 -0.6939 -0.6600
vn -0.2862 -0.6940 -0.6607
vn 0.2636 -0.6344 0.7267
vn -0.2622 -0.6350 0.7267
vn -0.7722 -0.5587 0.3028
vn 0.4188 -0.8122 -0.4062
vn 0.7735 -0.5567 0.3029
vn -0.4159 -0.8139 -0.4057
vn 0.5269 0.0010 0.8500
vn -0.5271 -0.0010 0.8498
vn 0.8709 0.0016 0.4914
vn -0.8708 -0.0016 0.4916
vn -0.6817 -0.2833 -0.6746
vn -0.6823 0.2817 -0.6746
vn -0.6353 -0.2640 0.7258
vn -0.6359 0.2626 0.7258
vn -0.5472 -0.7793 0.3055
vn -0.7997 0.4331 -0.4158
vn -0.7987 -0.4350 -0.4158
vn -0.5489 0.7780 0.3055
vn 0.6832 -0.2821 -0.6735
vn 0.6817 0.2833 -0.6745
vn 0.6358 -0.2625 0.7258
vn 0.6352 0.2640 0.7258
vn 0.7998 0.4336 -0.4150
vn 0.5496 -0.7776 0.3053
vn 0.7997 -0.4332 -0.4157
vn 0.5472 0.7792 0.3056
vn -0.7441 -0.0011 0.6680
vn -0.7442 -0.0011 0.6680
vn 0.0008 -0.7442 0.6680
vn 0.0009 -0.7442 0.6680
vn 0.7441 0.0011 0.6680
vn 0.7442 0.0011 0.6680
vn -0.0008 0.7442 0.6680
usemtl directional_light_icon
s off
f 51//1 55//1 7//1 1//1
f 177//2 176//2 76//2 105//2 93//2
f 79//3 64//3 137//3 140//3
f 187//4 186//4 80//4 142//4 131//4
f 83//3 68//3 120//3 117//3
f 197//5 196//5 84//5 119//5 109//5
f 9//6 13//6 21//6 15//6
f 87//3 72//3 163//3 166//3
f 204//7 170//7 209//7 224//7
f 71//8 54//8 53//8 154//8 164//8
f 172//9 171//9 5//9 4//9 113//9 116//9
f 111//10 110//10 118//10 122//10
f 206//11 205//11 199//11 203//11 85//11 88//11
f 63//12 26//12 25//12 130//12 138//12
f 95//13 94//13 104//13 108//13
f 4//14 3//14 58//14 125//14 113//14
f 3//15 2//15 8//15 12//15 59//15 58//15
f 174//16 180//16 213//16 212//16
f 38//3 37//3 43//3 47//3 201//3 200//3 194//3 198//3
f 24//3 23//3 29//3 33//3 191//3 190//3 184//3 188//3
f 10//3 9//3 15//3 19//3 181//3 180//3 174//3 178//3
f 202//9 201//9 47//9 46//9 133//9 136//9
f 192//9 191//9 33//9 32//9 89//9 92//9
f 182//9 181//9 19//9 18//9 151//9 150//9
f 52//3 51//3 1//3 5//3 171//3 170//3 204//3 208//3
f 61//3 78//3 157//3 160//3
f 69//3 86//3 146//3 143//3
f 65//3 82//3 100//3 97//3
f 57//3 74//3 126//3 123//3
f 184//1 190//1 217//1 216//1
f 45//8 44//8 50//8 54//8 71//8 70//8
f 81//17 193//17 192//17 92//17 101//17
f 85//18 203//18 202//18 136//18 147//18
f 31//19 30//19 36//19 40//19 67//19 66//19
f 194//6 200//6 221//6 220//6
f 77//4 183//4 182//4 150//4 158//4
f 17//12 16//12 22//12 26//12 63//12 62//12
f 196//20 195//20 189//20 193//20 81//20 84//20
f 2//21 6//21 14//21 8//21
f 207//11 206//11 88//11 168//11 155//11
f 91//22 90//22 98//22 102//22
f 179//23 185//23 215//23 214//23
f 199//24 205//24 223//24 222//24
f 61//3 64//3 79//3 78//3
f 37//16 41//16 49//16 43//16
f 16//24 20//24 28//24 22//24
f 39//9 38//9 198//9 197//9 109//9 112//9
f 59//25 12//25 11//25 96//25 107//25
f 32//26 31//26 66//26 99//26 89//26
f 129//27 132//27 141//27 139//27
f 176//28 175//28 169//28 173//28 73//28 76//28
f 67//29 40//29 39//29 112//29 121//29
f 115//30 114//30 124//30 128//30
f 44//23 48//23 56//23 50//23
f 11//9 10//9 178//9 177//9 93//9 96//9
f 13//9 14//9 6//9 7//9 55//9 56//9 48//9 49//9 41//9 42//9 34//9 35//9 27//9 28//9 20//9 21//9
f 69//3 72//3 87//3 86//3
f 189//21 195//21 219//21 218//21
f 149//31 152//31 161//31 159//31
f 135//32 134//32 144//32 148//32
f 30//33 34//33 42//33 36//33
f 65//3 68//3 83//3 82//3
f 53//9 52//9 208//9 207//9 155//9 154//9
f 46//8 45//8 70//8 145//8 133//8
f 186//4 185//4 179//4 183//4 77//4 80//4
f 209//3 210//3 211//3 212//3 213//3 214//3 215//3 216//3 217//3 218//3 219//3 220//3 221//3 222//3 223//3 224//3
f 25//9 24//9 188//9 187//9 131//9 130//9
f 18//12 17//12 62//12 162//12 151//12
f 73//34 173//34 172//34 116//34 127//34
f 153//35 156//35 167//35 165//35
f 23//7 27//7 35//7 29//7
f 1//36 2//36 3//36 4//36 5//36
f 8//37 9//37 10//37 11//37 12//37
f 15//38 16//38 17//38 18//38 19//38
f 22//38 23//38 24//38 25//38 26//38
f 29//39 30//39 31//39 32//39 33//39
f 36//40 37//40 38//40 39//40 40//40
f 43//41 44//41 45//41 46//41 47//41
f 50//41 51//41 52//41 53//41 54//41
f 1//42 7//42 6//42 2//42
f 13//43 9//43 8//43 14//43
f 20//44 16//44 15//44 21//44
f 27//45 23//45 22//45 28//45
f 34//46 30//46 29//46 35//46
f 41//47 37//47 36//47 42//47
f 48//48 44//48 43//48 49//48
f 55//49 51//49 50//49 56//49
f 75//3 60//3 106//3 103//3
f 97//50 98//50 99//50
f 100//51 101//51 102//51
f 103//52 104//52 105//52
f 106//53 107//53 108//53
f 117//54 118//54 119//54
f 120//55 121//55 122//55
f 123//56 124//56 125//56
f 126//57 127//57 128//57
f 137//58 138//58 139//58
f 140//59 141//59 142//59
f 143//60 144//60 145//60
f 146//61 147//61 148//61
f 157//62 158//62 159//62
f 160//63 161//63 162//63
f 163//64 164//64 165//64
f 166//65 167//65 168//65
f 58//66 59//66 60//66 57//66
f 62//67 63//67 64//67 61//67
f 66//68 67//68 68//68 65//68
f 70//69 71//69 72//69 69//69
f 74//70 75//70 76//70 73//70
f 78//71 79//71 80//71 77//71
f 82//72 83//72 84//72 81//72
f 86//73 87//73 88//73 85//73
f 90//74 91//74 92//74 89//74
f 94//75 95//75 96//75 93//75
f 97//76 100//76 102//76 98//76
f 103//77 106//77 108//77 104//77
f 104//78 94//78 93//78 105//78
f 98//79 90//79 89//79 99//79
f 91//80 102//80 101//80 92//80
f 95//81 108//81 107//81 96//81
f 65//82 97//82 99//82 66//82
f 75//83 103//83 105//83 76//83
f 106//84 60//84 59//84 107//84
f 100//85 82//85 81//85 101//85
f 110//86 111//86 112//86 109//86
f 114//87 115//87 116//87 113//87
f 117//88 120//88 122//88 118//88
f 123//89 126//89 128//89 124//89
f 115//90 128//90 127//90 116//90
f 113//91 125//91 124//91 114//91
f 109//92 119//92 118//92 110//92
f 121//93 112//93 111//93 122//93
f 83//94 117//94 119//94 84//94
f 73//95 127//95 126//95 74//95
f 125//96 58//96 57//96 123//96
f 67//97 121//97 120//97 68//97
f 130//98 131//98 132//98 129//98
f 134//99 135//99 136//99 133//99
f 139//100 141//100 140//100 137//100
f 143//101 146//101 148//101 144//101
f 131//102 142//102 141//102 132//102
f 138//103 130//103 129//103 139//103
f 144//104 134//104 133//104 145//104
f 147//105 136//105 135//105 148//105
f 79//71 140//71 142//71 80//71
f 63//67 138//67 137//67 64//67
f 69//69 143//69 145//69 70//69
f 146//73 86//73 85//73 147//73
f 150//106 151//106 152//106 149//106
f 154//107 155//107 156//107 153//107
f 159//108 161//108 160//108 157//108
f 165//109 167//109 166//109 163//109
f 151//110 162//110 161//110 152//110
f 158//111 150//111 149//111 159//111
f 153//112 165//112 164//112 154//112
f 155//113 168//113 167//113 156//113
f 87//73 166//73 168//73 88//73
f 71//69 164//69 163//69 72//69
f 157//71 78//71 77//71 158//71
f 162//67 62//67 61//67 160//67
f 57//3 60//3 75//3 74//3
f 169//114 170//114 171//114 172//114 173//114
f 174//115 175//115 176//115 177//115 178//115
f 179//116 180//116 181//116 182//116 183//116
f 184//117 185//117 186//117 187//117 188//117
f 189//118 190//118 191//118 192//118 193//118
f 194//119 195//119 196//119 197//119 198//119
f 199//120 200//120 201//120 202//120 203//120
f 204//120 205//120 206//120 207//120 208//120
f 169//46 210//46 209//46 170//46
f 223//45 205//45 204//45 224//45
f 199//44 222//44 221//44 200//44
f 219//43 195//43 194//43 220//43
f 189//42 218//42 217//42 190//42
f 215//49 185//49 184//49 216//49
f 179//48 214//48 213//48 180//48
f 211//47 175//47 174//47 212//47
f 169//33 175//33 211//33 210//33
